<?xml version="1.0" standalone="no"?>
<!DOCTYPE svg PUBLIC "-//W3C//DTD SVG 20010904//EN"
 "http://www.w3.org/TR/2001/REC-SVG-20010904/DTD/svg10.dtd">
<svg version="1.0" xmlns="http://www.w3.org/2000/svg"
 width="412.000000pt" height="412.000000pt" viewBox="0 0 412.000000 412.000000"
 preserveAspectRatio="xMidYMid meet">
<metadata>
Created by potrace 1.11, written by Peter Selinger 2001-2013
</metadata>
<g transform="translate(0.000000,412.000000) scale(0.100000,-0.100000)"
fill="#000000" stroke="none">
<path d="M1980 4097 c-47 -17 -104 -49 -355 -197 -282 -165 -922 -531 -1066
-609 -186 -100 -262 -176 -297 -295 -17 -57 -18 -119 -16 -956 l1 -895 22 -58
c42 -109 75 -133 516 -385 220 -126 555 -319 746 -429 451 -262 437 -255 531
-261 72 -4 82 -2 150 30 40 19 312 172 603 340 292 167 628 360 748 428 159
91 230 137 262 171 79 84 75 32 75 1079 0 1020 2 987 -61 1064 -42 50 -108 91
-465 292 -165 92 -472 269 -684 393 -503 295 -504 295 -599 299 -45 1 -91 -3
-111 -11z m216 -755 c23 -11 55 -36 71 -56 79 -89 41 -255 -72 -321 l-46 -28
6 -76 c4 -42 12 -80 19 -86 7 -5 15 -18 19 -27 5 -15 35 -17 319 -20 l313 -3
66 -32 c86 -43 149 -110 172 -184 16 -50 17 -101 15 -515 l-3 -459 -28 -56
c-33 -67 -118 -152 -184 -182 -40 -18 -73 -22 -198 -27 l-150 -5 -5 -148 c-5
-141 -6 -150 -29 -168 -29 -24 -82 -24 -111 -1 -16 13 -25 37 -34 87 -9 60
-14 70 -31 70 -17 0 -21 -9 -26 -64 -5 -54 -11 -69 -33 -88 -38 -32 -81 -30
-117 6 -24 25 -29 38 -29 79 0 32 -5 54 -15 62 -26 21 -45 -5 -45 -62 0 -41
-5 -54 -29 -79 -60 -59 -134 -25 -146 67 -3 27 -7 56 -8 64 -1 8 -11 15 -22
15 -17 0 -21 -9 -26 -55 -3 -31 -11 -65 -18 -78 -26 -48 -93 -57 -132 -16 -22
24 -24 34 -29 167 l-5 142 -150 5 c-139 5 -154 7 -207 33 -83 41 -158 126
-186 211 -21 64 -22 81 -22 505 l0 438 30 60 c37 74 111 145 188 181 l57 27
313 3 313 3 9 23 c4 13 11 59 15 103 l7 80 -46 27 c-57 33 -93 85 -108 158 -9
45 -9 62 2 89 28 65 96 126 170 150 41 14 142 3 186 -19z m-1232 -1094 c3 -17
6 -142 6 -279 0 -273 -3 -286 -58 -273 -45 11 -122 56 -149 89 -77 91 -102
243 -55 333 42 78 124 146 197 162 41 9 52 4 59 -32z m2354 8 c149 -77 186
-275 82 -439 -46 -73 -173 -144 -207 -115 -10 8 -13 71 -13 290 0 278 0 279
22 287 26 9 70 1 116 -23z"/>
<path d="M1374 2071 c-27 -12 -68 -66 -83 -110 -38 -113 25 -282 134 -356 110
-76 262 -101 355 -58 53 24 75 46 85 88 14 60 7 96 -31 153 -110 166 -366 323
-460 283z"/>
<path d="M2654 2062 c-113 -40 -252 -144 -329 -247 -73 -97 -76 -138 -18 -214
77 -101 278 -99 429 4 56 39 88 88 109 170 29 108 15 199 -39 261 -39 44 -82
51 -152 26z"/>
<path d="M2009 1548 c-23 -40 -51 -88 -62 -107 l-20 -34 21 -18 c12 -9 22 -24
22 -33 0 -14 16 -16 111 -16 106 0 111 1 106 20 -3 11 -2 20 3 20 26 0 14 41
-39 133 -75 131 -85 133 -142 35z"/>
</g>
</svg>
